<?xml version="1.0" encoding="utf-8"?>
<!-- Generator: Fusion 360, Shaper Origin Export Add-In, Version 1.7.0  -->
<svg xmlns="http://www.w3.org/2000/svg" xmlns:xlink="http://www.w3.org/1999/xlink" xmlns:shaper="http://www.shapertools.com/namespaces/shaper" shaper:fusionaddin="version:1.7.0" width="25cm" height="13cm" version="1.1" x="0cm" y="0cm" viewBox="0 0 25 13" enable-background="new 0 0 25 13" xml:space="preserve"><path d="M18.4563244,6.5 L18.4563244,-6.5 -6.5436756,-6.5 -6.5436756,6.5 18.4563244,6.5z" transform="matrix(1,0,0,-1,6.5436756,6.5)" fill="rgb(0,0,0)" shaper:cutDepth="0.3cm" stroke-linecap="round" stroke-linejoin="round" /><path d="M6.4085461,-5.2749484 a0.23,0.23 0 1,1 0.46,0 a0.23,0.23 0 1,1 -0.46,0z" transform="matrix(1,0,0,-1,6.5436756,6.5)" fill="rgb(255,255,255)" stroke="rgb(0,0,0)" stroke-width="0.0010cm" stroke-linecap="round" stroke-linejoin="round" shaper:cutDepth="0.3cm" /><path d="M5.0457525,5.276054 a0.23,0.23 0 1,1 0.46,0 a0.23,0.23 0 1,1 -0.46,0z" transform="matrix(1,0,0,-1,6.5436756,6.5)" fill="rgb(255,255,255)" stroke="rgb(0,0,0)" stroke-width="0.0010cm" stroke-linecap="round" stroke-linejoin="round" shaper:cutDepth="0.3cm" /><path d="M5.0438291,-5.2749484 a0.23,0.23 0 1,1 0.46,0 a0.23,0.23 0 1,1 -0.46,0z" transform="matrix(1,0,0,-1,6.5436756,6.5)" fill="rgb(255,255,255)" stroke="rgb(0,0,0)" stroke-width="0.0010cm" stroke-linecap="round" stroke-linejoin="round" shaper:cutDepth="0.3cm" /><path d="M6.0576487,0 a5.855,5.855 0 1,1 11.71,0 a5.855,5.855 0 1,1 -11.71,0z" transform="matrix(1,0,0,-1,6.5436756,6.5)" fill="rgb(255,255,255)" stroke="rgb(0,0,0)" stroke-width="0.0010cm" stroke-linecap="round" stroke-linejoin="round" shaper:cutDepth="0.3cm" /><path d="M6.4080049,5.276054 a0.23,0.23 0 1,1 0.46,0 a0.23,0.23 0 1,1 -0.46,0z" transform="matrix(1,0,0,-1,6.5436756,6.5)" fill="rgb(255,255,255)" stroke="rgb(0,0,0)" stroke-width="0.0010cm" stroke-linecap="round" stroke-linejoin="round" shaper:cutDepth="0.3cm" /><path d="M-5.855,0 a5.855,5.855 0 1,1 11.71,0 a5.855,5.855 0 1,1 -11.71,0z" transform="matrix(1,0,0,-1,6.5436756,6.5)" fill="rgb(255,255,255)" stroke="rgb(0,0,0)" stroke-width="0.0010cm" stroke-linecap="round" stroke-linejoin="round" shaper:cutDepth="0.3cm" /><path d="M-5.50493,5.276054 a0.23,0.23 0 1,1 0.46,0 a0.23,0.23 0 1,1 -0.46,0z" transform="matrix(1,0,0,-1,6.5436756,6.5)" fill="rgb(255,255,255)" stroke="rgb(0,0,0)" stroke-width="0.0010cm" stroke-linecap="round" stroke-linejoin="round" shaper:cutDepth="0.3cm" /><path d="M-5.50493,-5.2752462 a0.23,0.23 0 1,1 0.46,0 a0.23,0.23 0 1,1 -0.46,0z" transform="matrix(1,0,0,-1,6.5436756,6.5)" fill="rgb(255,255,255)" stroke="rgb(0,0,0)" stroke-width="0.0010cm" stroke-linecap="round" stroke-linejoin="round" shaper:cutDepth="0.3cm" /><path d="M16.9586479,-5.2749484 a0.23,0.23 0 1,1 0.46,0 a0.23,0.23 0 1,1 -0.46,0z" transform="matrix(1,0,0,-1,6.5436756,6.5)" fill="rgb(255,255,255)" stroke="rgb(0,0,0)" stroke-width="0.0010cm" stroke-linecap="round" stroke-linejoin="round" shaper:cutDepth="0.3cm" /><path d="M16.9586479,5.276054 a0.23,0.23 0 1,1 0.46,0 a0.23,0.23 0 1,1 -0.46,0z" transform="matrix(1,0,0,-1,6.5436756,6.5)" fill="rgb(255,255,255)" stroke="rgb(0,0,0)" stroke-width="0.0010cm" stroke-linecap="round" stroke-linejoin="round" shaper:cutDepth="0.3cm" /></svg>